# xmcd
#
# Track frame offsets:
#	150
#	25932
#	41790
#	63420
#	85097
#	103267
#	125700
#	145697
#	165270
#	183940
#	203575
#	222557
#	242297
#	261215
#
# Disc length: 3688 seconds
#
# Revision: 29
# Processed by: cddbd v1.5.2PL0 Copyright (c) Steve Scherf et al.
# Submitted via: EasyCDDAExtractor 15.3.0.1
#
DISCID=c10e660e
DTITLE=Celine Dion - The Colour Of My Love
DYEAR=1993
DGENRE=Pop
TTITLE0=The Power Of Love
TTITLE1=Misled
TTITLE2=Think Twice
TTITLE3=Only One Road
TTITLE4=Everybody's Talkin' My Baby Down
TTITLE5=Next Plane Out
TTITLE6=Real Emotion
TTITLE7=When I Fall In Love (Featured In The Tristar Motion Picture ''Sleeples
TTITLE7=s In Seattle'') (Performed By Celine Dion And Clive Griffin)
TTITLE8=Love Doesn't Ask Why
TTITLE9=Refuse To Dance
TTITLE10=I Remember L.A.
TTITLE11=No Living Without Loving You
TTITLE12=Lovin' Proof
TTITLE13=The Colour Of My Love
EXTD=YEAR: 1993
EXTT0=
EXTT1=
EXTT2=
EXTT3=
EXTT4=
EXTT5=
EXTT6=
EXTT7=
EXTT8=
EXTT9=
EXTT10=
EXTT11=
EXTT12=
EXTT13=
PLAYORDER=
